<svg width="78" height="71" viewBox="0 0 78 71" fill="none" xmlns="http://www.w3.org/2000/svg">
<rect y="0.149902" width="73" height="70" rx="35" fill="white"/>
<path d="M5.34673 53.7382L4.26172 51.9053C16.5002 50.2474 25.9229 51.8614 29.1045 52.8756L23.904 55.3554C12.8594 52.9978 6.93058 53.2949 5.34673 53.7382Z" fill="url(#paint0_linear_4502_91)"/>
<path d="M15.9891 60.4173C14.2391 59.0801 9.69167 57.4882 7.63672 56.8594C7.93505 57.3179 9.63368 59.1517 10.4457 60.0114L13.3044 62.7097L15.9891 60.4173Z" fill="url(#paint1_linear_4502_91)"/>
<path d="M5.24609 53.6485L6.37875 55.3476L9.32715 55.4746L12.2605 55.9045L17.2819 57.0029L19.6435 57.958L23.9689 55.4746L22.7508 55.1403L19.3949 54.4478L15.2435 53.9225L11.6141 53.6485L7.53733 53.4927L5.24609 53.6485Z" fill="url(#paint2_linear_4502_91)"/>
<path d="M34.3049 50.758C19.856 47.3476 7.71213 49.0066 3.44629 50.2623L4.11717 51.8485C18.6486 50.5002 26.8569 51.9807 29.1447 52.8895L34.3049 50.758Z" fill="url(#paint3_linear_4502_91)"/>
<path d="M22.9915 68.0688L20.3911 66.9239L24.0339 63.4534L28.2457 59.8121L34.4056 55.918L41.5657 52.5296L47.357 50.4561L52.1261 49.2793L56.9284 48.4253L61.7307 48.0674H65.6138L70.6358 48.4253L70.2144 49.5792C51.7938 48.4765 35.4573 62.6183 28.9507 69.7965L27.1738 69.3802L22.9915 68.0688Z" fill="url(#paint4_linear_4502_91)"/>
<path d="M70.6745 48.5492C45.1333 45.6654 26.5574 59.663 20.4621 67.0222C17.3835 65.7708 14.9247 63.6428 13.4756 62.6174C34.8292 45.1408 58.82 44.9802 71.1404 47.3997L70.6745 48.5492Z" fill="url(#paint5_linear_4502_91)"/>
<path d="M52.2648 24.0895L51.3057 21.1316L52.2648 19.2324L53.4465 20.1736L54.183 22.2408L54.5427 24.829L52.2648 24.0895Z" fill="url(#paint6_linear_4502_91)"/>
<path d="M39.6925 70.379C35.533 70.8656 30.9378 70.1762 29.1602 69.7707C44.2071 52.3034 62.708 49.0032 70.0776 49.5365L69.8195 50.2974C56.9648 51.2659 44.3787 64.0887 39.6925 70.379Z" fill="url(#paint7_linear_4502_91)"/>
<path d="M51.3047 67.4872C53.6528 63.1902 60.5887 54.0473 68.9349 51.8545C66.884 55.7089 60.3642 64.2323 51.3047 67.4872Z" fill="url(#paint8_linear_4502_91)"/>
<path d="M7.72084 56.9455L6.31885 55.2246C13.7339 55.7334 18.3138 57.1824 19.6768 57.8433L16.1329 60.3497C11.7711 58.0453 8.70743 57.12 7.72084 56.9455Z" fill="url(#paint9_linear_4502_91)"/>
<path d="M69.6952 50.3765C57.8028 50.6756 44.7225 63.8403 39.6689 70.3852C42.6159 70.5476 48.6938 68.6486 51.3643 67.6788L51.646 66.9119L53.1018 64.4761L56.2011 60.7095L58.009 58.6797L61.1083 55.9731L64.865 53.5598L68.3635 51.9134L68.974 51.7555L69.6952 50.3765Z" fill="url(#paint10_linear_4502_91)"/>
<path d="M6.63591 16.8723L5.83301 16.2568L8.79658 12.4375L10.2799 13.4299L11.4631 14.4589L13.1839 15.2548L15.4636 16.0615L17.4255 16.8036L18.9051 17.1155L21.3383 17.2338L19.7929 17.8683V18.1265L21.8643 19.2558L23.5959 20.2807L24.4744 20.4782L25.8836 20.2088L26.7154 19.697L27.5948 18.6105L28.4549 18.4129V18.7272L27.9516 19.6162L26.7154 20.7656L25.8836 21.1068L25.4993 21.439L25.664 21.6276L26.9634 22.1484L28.829 22.5663L30.716 22.7911L32.2863 23.3805H33.5039L34.9564 23.0357L36.0106 22.3633L37.9178 21.9149L39.4192 21.7308L41.0487 21.5466L44.8923 19.5784L45.206 20.3202L41.8904 21.9861L41.7976 22.2333L43.6013 23.8211L45.128 23.6519L45.9487 23.2745L46.0564 22.3895L46.5853 21.4264L47.4076 20.8017L48.3758 20.5154L49.5031 20.5935L50.259 20.8798L51.2007 21.8299L51.7842 23.1704L51.6649 24.6336L50.6702 25.9815L49.0124 26.476L47.6994 26.1664L46.8108 25.3047L46.2936 24.3589H46.0564L45.128 24.6336L44.7449 24.8523L44.6417 25.1831L44.8923 25.7326L45.128 26.1664H44.8923L44.0523 25.5417L43.3625 24.8523L42.1584 23.7328L41.0487 22.9432L39.703 22.7347L37.1295 23.1517L33.1927 23.7328L30.4462 23.9087L28.6465 23.9642L28.5529 24.0691L29.2211 25.1005L30.4462 26.9457L30.9659 28.3496H31.4258L32.4273 27.788C33.1304 25.9749 34.2804 25.2409 34.7676 25.1005L34.8698 25.5417L34.6143 26.9457L33.7746 28.4794L34.3781 28.9016L35.609 29.8925L36.1229 30.6372L35.4597 30.6783L34.2509 30.3559L33.5105 29.8577L32.8477 29.3249L32.199 29.1796L31.4856 29.4422L31.2814 29.7701V30.6444L31.6526 31.2454L32.4322 32.1743L32.6364 32.8118L32.2652 32.7207L30.7431 32.1743L30.6318 31.81L30.4462 30.1708L29.6666 27.9123L28.7014 26.0362L27.7734 24.8523L26.7154 23.7413L25.1378 22.4676L23.1566 21.2143L21.0281 20.1539L17.7959 18.9524L15.7763 18.2678L14.064 17.8975L12.3949 17.835L10.2799 17.76L9.10769 17.6225L8.34322 17.3849L6.63591 16.8723Z" fill="url(#paint11_linear_4502_91)"/>
<path d="M36.3363 24.854H35.3623L35.3019 25.8183L35.1985 26.791L34.6899 28.1951L35.7846 29.2524L36.5863 30.4535H36.8535L37.5775 30.0983L38.5947 29.3116L39.0688 28.4066L39.1722 27.3916L38.8102 26.6303L38.3102 26.2074L37.6724 26.0467H37.0259H36.3363L35.9915 25.869L36.2587 25.6153L37.5086 25.0824L36.3363 24.854Z" fill="url(#paint12_linear_4502_91)"/>
<path d="M31.4145 17.707L29.2959 18.0612V18.554V19.6474L29.8295 20.8641L31.0065 21.9421L32.3248 22.6197H33.2978L34.4905 22.4349L35.5106 21.7881L36.3737 20.6947L36.5307 20.2635V19.7244L35.0712 18.554L33.6901 17.9688L31.4145 17.707Z" fill="url(#paint13_linear_4502_91)"/>
<path d="M30.2022 15.1948L29.9263 16.9761L30.0918 17.1145L31.7967 16.9761L32.0236 16.8196L31.7599 16.0493L31.1834 15.4115L30.2022 15.1948Z" fill="url(#paint14_linear_4502_91)"/>
<path d="M28.1314 11.8979L27.0462 10.7197L26.0996 11.0143L25.0145 11.7619L24.2295 13.1439V14.7525L24.899 16.2932L26.0996 17.2447L27.3233 17.7205H28.9856L29.1703 16.8369L29.3781 15.0697L28.9856 13.5064L28.1314 11.8979Z" fill="url(#paint15_linear_4502_91)"/>
<path d="M50.5027 20.1677C48.7874 19.1074 47.0642 20.002 46.417 20.5818L45.6235 19.4884L45.5391 18.5109L45.6235 17.7819L46.0624 16.9204L46.7884 16.1252L47.6157 15.6116L48.5611 15.5122L49.4728 15.711L50.3676 16.3571L50.9585 17.3346L51.0767 18.6766L50.5027 20.1677Z" fill="url(#paint16_linear_4502_91)"/>
<path d="M52.4106 24.9062C51.6947 26.8016 49.5573 27.3085 48.5781 27.3251L48.9496 28.6008L50.0638 29.6611L51.4145 30.1415L52.782 29.9262L53.7106 29.3463L54.1495 28.402L54.2846 27.3251L53.9807 26.331L53.2547 25.4198L52.4106 24.9062Z" fill="url(#paint17_linear_4502_91)"/>
<path d="M51.7522 19.4887L51.2119 20.5325L51.482 21.0129L51.7522 20.5325L52.0223 20.0189L52.1742 19.7869L52.8833 20.0189V20.5325L52.0223 21.3774V21.6425L52.1742 21.891L53.3054 21.3774H53.6431L53.9301 21.891L53.7613 22.272L52.5119 22.4709L52.3093 22.6034L52.4275 23.0176L52.6976 23.1335H53.4742L54.1665 23.3489V23.7465L54.0314 24.1939H53.4742L52.8833 23.8459H52.5119V24.1939L53.4742 24.6743L54.1665 25.3867L54.8418 26.3476L55.5171 25.3867L55.7197 24.4258V23.4815L55.3483 22.6034L54.3522 21.4768L54.4703 20.7479V20.0189L54.1665 19.2237L53.7613 18.5444L53.0353 17.9977L52.3093 17.8154H51.8366L51.7522 19.4887Z" fill="url(#paint18_linear_4502_91)"/>
<path d="M35.0363 18.181L28.6784 11.8485L27.9473 9.75844L29.6321 9.00977L34.4959 9.32172L37.7384 12.5348L38.6285 17.8379L35.0363 18.181Z" fill="url(#paint19_linear_4502_91)"/>
<path d="M28.8364 11.7397L29.5472 12.3973L29.6333 10.9622L29.3492 10.2291L29.4628 9.71861L30.0879 9.48722L30.4808 9.98592L30.3578 10.9622L30.4808 12.9976L30.9665 11.297V10.1089L31.1566 9.56321L31.8555 9.48722L32.2204 9.86715L31.8555 10.7309L31.2796 12.9976V13.5234L32.2204 11.7553L32.7108 10.4963L32.8077 9.81373L33.2753 9.71861L33.777 9.90325L33.9196 10.4012L32.4827 12.6953L32.1919 13.473L33.4262 11.9647L34.0685 10.9622L34.6008 10.3679L35.1636 10.5359L35.4083 11.1479L34.8355 11.6378L33.3196 13.3482L33.1007 13.8461L34.9419 12.505L35.6211 11.5816L36.2267 11.6378L36.5785 12.0875L36.4722 12.505L35.7602 12.8182L33.3196 14.7002L35.8495 13.6343L36.3264 13.1014L37.0814 12.9714L37.3728 13.6993L37.1609 14.1152L36.4058 14.1932L33.3991 15.649L35.3064 15.2461L36.4058 14.8951L37.1609 14.7002L37.6245 14.9861L37.5317 15.649L37.0814 15.857H35.8495L34.4587 16.1429L33.9819 16.4289H35.9555L37.1609 16.2599L37.5317 16.6369L37.3728 17.3388L36.8827 17.4427L35.9555 17.1568H35.1872H34.6309L34.7104 17.4427L36.1542 18.3526L37.2933 19.3405L38.9225 20.5363L40.2206 20.6403L41.7042 20.2243L43.0552 19.1325L43.7308 17.8977L43.9162 16.2599L43.6248 14.9861L43.2407 14.1932L42.1678 12.8544L41.8499 12.3215L42.0353 11.9576L42.4592 10.9697L42.6181 9.60492L42.4592 8.51308L41.6644 7.0443L40.6428 5.90505L39.4994 5.1712L37.8197 4.65148H36.4048L34.4417 5.43207L34.0051 4.95377L32.8474 4.1865L31.4664 3.59859L30.0448 3.4292L28.7349 3.68828L27.2117 4.45555L26.1861 5.96021L25.8916 7.45491L26.2978 8.59087L27.4859 9.98592L28.8364 11.7397Z" fill="url(#paint20_linear_4502_91)"/>
<path d="M46.1706 22.0681L45.9863 23.2174L46.3943 24.5087L47.0391 25.6193L47.9734 26.3166L49.1841 26.4586L50.3947 26.1229L51.3422 25.2189L51.7107 24.1084V23.1012L51.3422 22.0681L50.6185 21.2416L49.9736 20.7768L49.1841 20.6089H48.105L47.1312 21.0092L46.1706 22.0681Z" fill="url(#paint21_linear_4502_91)"/>
<path d="M50.2467 14.5071L50.0186 12.8841V12.6416L51.3873 14.9921L53.5031 13.2786L53.347 12.2169L53.0012 10.9911L51.9415 10.5497L50.9488 9.47696L50.3911 8.42983L50.2461 6.85978L50.525 5.78104L51.0492 5.29944V5.86125L51.2165 5.97805L52.1869 5.04769L53.0793 4.64271H53.9939L54.9308 5.45267L55.4328 7.47758L54.9308 9.34924L53.9156 10.651L54.4188 12.0626H54.6107L57.1863 9.47696L57.4542 6.85978L57.301 5.86125L57.4542 5.64947L58.3383 7.84922L58.6725 7.95169L62.3556 3.36133L58.0126 10.1064L58.5457 10.5497L58.9793 10.4079L61.0483 9.47696V9.62769L59.9641 11.0551L59.7383 11.3731L60.4551 12.4115V12.6416L58.6491 11.6716L57.6036 11.3731H56.8812L55.5505 12.6416L55.1323 13.3691L55.6836 14.5071L54.9231 14.6563H53.9156L53.0602 14.9921L51.3873 16.2979L50.3988 15.2159L50.2467 14.5071Z" fill="url(#paint22_linear_4502_91)"/>
<path d="M55.0765 9.01562L53.906 10.653L52.9721 11.0318L52.4367 10.7752L51.3534 10.0543L50.7307 9.13783L50.1953 7.81815L50.3074 6.64513L50.6062 5.65538L50.9798 5.411L51.1666 6.04639L51.4654 5.80201L52.0133 5.14216L52.7231 4.71451L53.7691 4.56787L54.7403 5.14216L55.2135 6.46183L55.3878 7.81815L55.0765 9.01562Z" fill="url(#paint23_linear_4502_91)"/>
<path d="M61.2011 12.9329L60.5391 11.4323L61.0332 10.682L61.5834 9.4834H62.1801L62.6556 9.72129L62.0309 10.0232V10.2062L63.355 10.8284L63.4948 11.2493L63.1685 12.4113L61.9377 13.0244L61.2011 12.9329Z" fill="url(#paint24_linear_4502_91)"/>
<path d="M61.0593 28.9556H72.5069C71.3578 22.9402 68.6217 17.4598 64.7321 12.9321M24.9852 28.9556L0.578125 28.9679C3.70356 12.5731 18.6172 0.149902 36.5437 0.149902C42.0078 0.149902 47.1919 1.3041 51.8477 3.37315C51.9726 3.42868 52.0972 3.48486 52.2214 3.54169M70.9751 47.2589C65.9111 60.8587 52.407 70.5869 36.5437 70.5869C21.8242 70.5869 9.13602 62.2111 3.3371 50.1382" stroke="#665F5F" stroke-width="0.3" stroke-linecap="round" stroke-linejoin="round"/>
<path d="M16.1153 60.3898C14.1825 59.4088 9.78413 57.3411 7.65283 56.9185" stroke="#665F5F" stroke-width="0.3"/>
<path d="M19.793 57.8982C18.252 57.219 13.2321 55.6809 6.39941 55.2583" stroke="#665F5F" stroke-width="0.3"/>
<path d="M23.9513 55.4093C20.5036 54.5541 11.9628 53.0096 5.38086 53.6736" stroke="#665F5F" stroke-width="0.3"/>
<path d="M29.2431 52.8789C26.5528 51.9985 17.7079 50.4544 4.16797 51.843" stroke="#665F5F" stroke-width="0.3"/>
<path d="M39.5967 70.4396C44.7983 63.7754 58.2026 50.4287 69.6558 50.3735" stroke="#665F5F" stroke-width="0.3"/>
<path d="M51.1953 67.6331C53.2951 63.5886 59.8408 54.6111 68.946 51.688" stroke="#665F5F" stroke-width="0.3"/>
<path d="M28.998 69.8943C35.011 62.7705 51.7518 48.6131 70.0195 49.5507" stroke="#665F5F" stroke-width="0.3"/>
<path d="M20.3945 67.0326C26.7494 59.6401 45.6589 45.5685 70.458 48.4217" stroke="#665F5F" stroke-width="0.3"/>
<path d="M13.3169 62.6628C21.344 55.5088 44.3139 42.4629 70.9929 47.3708" stroke="#665F5F" stroke-width="0.3"/>
<path d="M34.3528 50.7515C28.328 49.4776 16.396 47.2899 3.44629 50.2294" stroke="#665F5F" stroke-width="0.3"/>
<path d="M20.007 28.9919C20.007 29.2693 19.9117 29.4079 19.721 29.4079C18.9583 29.4773 18.3777 29.6636 17.979 29.9669C17.589 30.2703 17.16 30.9593 16.692 32.0339L10.166 46.9709C10.1053 47.1096 9.984 47.1789 9.802 47.1789C9.62867 47.1789 9.516 47.1053 9.464 46.9579L3.64 32.0339C3.31933 31.1933 3.05067 30.6386 2.834 30.3699C2.626 30.0926 2.34433 29.8889 1.989 29.7589C1.63367 29.6203 1.05733 29.5033 0.26 29.4079C0.199333 29.4079 0.138667 29.3733 0.078 29.3039C0.026 29.2259 0 29.1393 0 29.0439C0 28.8013 0.0606667 28.6799 0.182 28.6799C0.762667 28.6799 1.404 28.7059 2.106 28.7579C2.77333 28.8099 3.37133 28.8359 3.9 28.8359C4.42867 28.8359 5.083 28.8099 5.863 28.7579C6.67767 28.7059 7.37533 28.6799 7.956 28.6799C8.09467 28.6799 8.164 28.8013 8.164 29.0439C8.164 29.2866 8.12067 29.4079 8.034 29.4079C7.27133 29.4426 6.721 29.5423 6.383 29.7069C6.045 29.8716 5.876 30.1273 5.876 30.4739C5.876 30.6906 5.98 31.0676 6.188 31.6049L10.686 43.4349L15.353 31.9299C15.509 31.4273 15.587 31.0546 15.587 30.8119C15.587 29.9626 14.833 29.4946 13.325 29.4079C13.221 29.4079 13.169 29.2866 13.169 29.0439C13.169 28.8013 13.247 28.6799 13.403 28.6799C13.8103 28.6799 14.3433 28.7059 15.002 28.7579C15.73 28.8099 16.3323 28.8359 16.809 28.8359C17.199 28.8359 17.6973 28.8099 18.304 28.7579C18.928 28.7059 19.4437 28.6799 19.851 28.6799C19.955 28.6799 20.007 28.7839 20.007 28.9919ZM35.8028 46.3989C35.8028 46.6416 35.7335 46.7629 35.5948 46.7629C34.9968 46.7629 34.3208 46.7369 33.5668 46.6849C32.9168 46.6329 32.3621 46.6069 31.9028 46.6069C31.3741 46.6069 30.7198 46.6329 29.9398 46.6849C29.1165 46.7369 28.4145 46.7629 27.8338 46.7629C27.6951 46.7629 27.6258 46.6416 27.6258 46.3989C27.6258 46.1563 27.6778 46.0349 27.7818 46.0349C28.5531 46.0003 29.1078 45.9006 29.4458 45.7359C29.7838 45.5626 29.9528 45.2983 29.9528 44.9429C29.9528 44.7176 29.8661 44.3579 29.6928 43.8639L28.2238 39.5089H22.8678L21.3858 43.5389C21.1951 44.0763 21.0998 44.4923 21.0998 44.7869C21.0998 45.5496 21.8018 45.9656 23.2058 46.0349C23.3098 46.0349 23.3618 46.1563 23.3618 46.3989C23.3618 46.6416 23.2925 46.7629 23.1538 46.7629C22.6338 46.7629 22.0575 46.7369 21.4248 46.6849C20.8268 46.6329 20.2938 46.6069 19.8258 46.6069C19.4531 46.6069 18.9851 46.6329 18.4218 46.6849C17.8325 46.7369 17.3298 46.7629 16.9138 46.7629C16.7838 46.7629 16.7188 46.6546 16.7188 46.4379C16.7188 46.1953 16.8185 46.0653 17.0178 46.0479C17.7371 45.9786 18.3048 45.7793 18.7208 45.4499C19.1455 45.1206 19.5831 44.4489 20.0338 43.4349L26.1178 28.4979C26.1698 28.3593 26.2911 28.2899 26.4818 28.2899C26.6898 28.2899 26.8198 28.3549 26.8718 28.4849L32.2408 43.4349C32.5441 44.2756 32.9515 44.8953 33.4628 45.2939C33.9828 45.6926 34.6761 45.9439 35.5428 46.0479C35.7161 46.0653 35.8028 46.1823 35.8028 46.3989ZM27.9378 38.6769L25.6498 32.0339L23.1798 38.6769H27.9378ZM60.5906 46.3989C60.5906 46.6416 60.5212 46.7629 60.3826 46.7629C59.8019 46.7629 59.0956 46.7369 58.2636 46.6849C57.4662 46.6329 56.8032 46.6069 56.2746 46.6069C55.7459 46.6069 55.1002 46.6329 54.3376 46.6849C53.5402 46.7369 52.8512 46.7629 52.2706 46.7629C52.1146 46.7629 52.0366 46.6416 52.0366 46.3989C52.0366 46.1823 52.1059 46.0653 52.2446 46.0479C53.2586 45.9266 53.9476 45.7403 54.3116 45.4889C54.6842 45.2376 54.8706 44.7609 54.8706 44.0589V43.8509L54.3246 31.2539L48.0586 46.9709C48.0066 47.1096 47.8852 47.1789 47.6946 47.1789C47.4952 47.1789 47.3782 47.1096 47.3436 46.9709L41.4416 31.8779L40.5056 43.8509C40.4882 43.9983 40.4796 44.1283 40.4796 44.2409C40.4796 44.8216 40.6789 45.2376 41.0776 45.4889C41.4762 45.7403 42.1869 45.9223 43.2096 46.0349C43.3309 46.0523 43.3916 46.1736 43.3916 46.3989C43.3916 46.6416 43.3136 46.7629 43.1576 46.7629C42.7069 46.7629 42.0916 46.7369 41.3116 46.6849C40.5836 46.6329 40.0202 46.6069 39.6216 46.6069C39.1882 46.6069 38.5989 46.6329 37.8536 46.6849C37.1342 46.7369 36.5796 46.7629 36.1896 46.7629C36.0682 46.7629 36.0076 46.6416 36.0076 46.3989C36.0076 46.1823 36.0856 46.0653 36.2416 46.0479C37.3336 45.9179 38.0876 45.7143 38.5036 45.4369C38.9282 45.1596 39.1709 44.6309 39.2316 43.8509L40.5836 31.6179C40.5922 31.4619 40.5966 31.3233 40.5966 31.2019C40.5966 30.6386 40.3972 30.2313 39.9986 29.9799C39.5999 29.7286 38.8762 29.5379 37.8276 29.4079C37.7062 29.4079 37.6456 29.2866 37.6456 29.0439C37.6456 28.9573 37.6716 28.8749 37.7236 28.7969C37.7756 28.7189 37.8276 28.6799 37.8796 28.6799C38.2002 28.6799 38.6552 28.7059 39.2446 28.7579C39.7472 28.8099 40.1156 28.8359 40.3496 28.8359C40.6529 28.8359 41.0862 28.8099 41.6496 28.7579C42.2302 28.7059 42.6809 28.6799 43.0016 28.6799L48.5786 43.1489L54.3506 28.6799C54.6972 28.6799 55.1522 28.7059 55.7156 28.7579C56.2269 28.8099 56.6299 28.8359 56.9246 28.8359C57.2886 28.8359 57.7262 28.8099 58.2376 28.7579C58.7662 28.7059 59.2212 28.6799 59.6026 28.6799C59.7586 28.6799 59.8366 28.8013 59.8366 29.0439C59.8366 29.2866 59.7672 29.4079 59.6286 29.4079C58.6146 29.5293 57.9212 29.7156 57.5486 29.9669C57.1846 30.2183 57.0026 30.6949 57.0026 31.3969V31.6179L57.6006 43.8509C57.6266 44.4576 57.7176 44.8823 57.8736 45.1249C58.0382 45.3676 58.3156 45.5626 58.7056 45.7099C59.0956 45.8486 59.6546 45.9613 60.3826 46.0479C60.5212 46.0653 60.5906 46.1823 60.5906 46.3989ZM73.3482 41.5369C73.3482 43.2616 72.8369 44.6353 71.8142 45.6579C70.7916 46.6719 69.4092 47.1789 67.6672 47.1789C66.8959 47.1789 65.9729 47.0403 64.8982 46.7629C63.9189 46.5029 63.1172 46.3729 62.4932 46.3729C62.4412 44.8996 62.3372 43.4263 62.1812 41.9529C62.1812 41.8143 62.3112 41.7449 62.5712 41.7449C62.7532 41.7449 62.8659 41.8143 62.9092 41.9529C63.3772 43.5649 63.9752 44.7003 64.7032 45.3589C65.4312 46.0176 66.4539 46.3469 67.7712 46.3469C68.8199 46.3469 69.6302 46.0436 70.2022 45.4369C70.7829 44.8303 71.0732 43.9809 71.0732 42.8889C71.0732 42.1869 70.8219 41.5369 70.3192 40.9389C69.8166 40.3323 68.7462 39.5523 67.1082 38.5989C65.2276 37.5156 63.9969 36.5969 63.4162 35.8429C62.8356 35.0889 62.5452 34.2526 62.5452 33.3339C62.5452 31.9213 63.0652 30.7296 64.1052 29.7589C65.1539 28.7796 66.4799 28.2899 68.0832 28.2899C68.6899 28.2899 69.3876 28.3723 70.1762 28.5369C70.9129 28.6843 71.5499 28.7579 72.0872 28.7579C72.1912 30.2833 72.3299 31.6266 72.5032 32.7879C72.5032 32.9266 72.3906 32.9959 72.1652 32.9959C71.9226 32.9959 71.7882 32.9266 71.7622 32.7879C71.4762 31.4879 71.0429 30.5519 70.4622 29.9799C69.8816 29.4079 69.0799 29.1219 68.0572 29.1219C67.0866 29.1219 66.3152 29.4079 65.7432 29.9799C65.1712 30.5519 64.8852 31.3233 64.8852 32.2939C64.8852 32.9093 65.1236 33.4986 65.6002 34.0619C66.0856 34.6166 67.1299 35.3619 68.7332 36.2979C70.6312 37.4073 71.8749 38.3346 72.4642 39.0799C73.0536 39.8253 73.3482 40.6443 73.3482 41.5369Z" fill="#665F5F"/>
<defs>
<linearGradient id="paint0_linear_4502_91" x1="4.51661" y1="52.1921" x2="28.5548" y2="54.0905" gradientUnits="userSpaceOnUse">
<stop stop-color="#D0989F"/>
<stop offset="1" stop-color="white" stop-opacity="0"/>
</linearGradient>
<linearGradient id="paint1_linear_4502_91" x1="7.72242" y1="58.2653" x2="15.8518" y2="58.419" gradientUnits="userSpaceOnUse">
<stop stop-color="#D0989F"/>
<stop offset="1" stop-color="white" stop-opacity="0"/>
</linearGradient>
<linearGradient id="paint2_linear_4502_91" x1="5.43819" y1="54.5658" x2="23.6116" y2="55.5745" gradientUnits="userSpaceOnUse">
<stop stop-color="#D0989F"/>
<stop offset="1" stop-color="white" stop-opacity="0"/>
</linearGradient>
<linearGradient id="paint3_linear_4502_91" x1="3.7629" y1="49.7329" x2="33.5207" y2="52.6584" gradientUnits="userSpaceOnUse">
<stop stop-color="#D0989F"/>
<stop offset="1" stop-color="white" stop-opacity="0"/>
</linearGradient>
<linearGradient id="paint4_linear_4502_91" x1="20.9066" y1="53.2894" x2="69.7815" y2="54.7854" gradientUnits="userSpaceOnUse">
<stop stop-color="#D0989F"/>
<stop offset="1" stop-color="white" stop-opacity="0"/>
</linearGradient>
<linearGradient id="paint5_linear_4502_91" x1="14.0672" y1="51.2754" x2="70.1364" y2="53.3402" gradientUnits="userSpaceOnUse">
<stop stop-color="#D0989F"/>
<stop offset="1" stop-color="white" stop-opacity="0"/>
</linearGradient>
<linearGradient id="paint6_linear_4502_91" x1="54.4056" y1="21.5685" x2="51.8214" y2="22.8506" gradientUnits="userSpaceOnUse">
<stop stop-color="#665F5F"/>
<stop offset="1" stop-color="#D9D9D9" stop-opacity="0"/>
</linearGradient>
<linearGradient id="paint7_linear_4502_91" x1="29.58" y1="54.5456" x2="69.3928" y2="55.5695" gradientUnits="userSpaceOnUse">
<stop stop-color="#D0989F"/>
<stop offset="1" stop-color="white" stop-opacity="0"/>
</linearGradient>
<linearGradient id="paint8_linear_4502_91" x1="51.4856" y1="55.6114" x2="68.6473" y2="55.8676" gradientUnits="userSpaceOnUse">
<stop stop-color="#D0989F"/>
<stop offset="1" stop-color="white" stop-opacity="0"/>
</linearGradient>
<linearGradient id="paint9_linear_4502_91" x1="6.4559" y1="56.4563" x2="19.4464" y2="56.9045" gradientUnits="userSpaceOnUse">
<stop stop-color="#D0989F"/>
<stop offset="1" stop-color="white" stop-opacity="0"/>
</linearGradient>
<linearGradient id="paint10_linear_4502_91" x1="39.977" y1="55.1873" x2="69.2004" y2="55.7676" gradientUnits="userSpaceOnUse">
<stop stop-color="#D0989F"/>
<stop offset="1" stop-color="white" stop-opacity="0"/>
</linearGradient>
<linearGradient id="paint11_linear_4502_91" x1="6.30447" y1="17.3339" x2="51.0049" y2="18.6684" gradientUnits="userSpaceOnUse">
<stop stop-color="#665F5F"/>
<stop offset="1" stop-color="#665F5F" stop-opacity="0"/>
</linearGradient>
<linearGradient id="paint12_linear_4502_91" x1="39.3468" y1="27.6538" x2="34.5703" y2="29.473" gradientUnits="userSpaceOnUse">
<stop stop-color="#FFD1D7"/>
<stop offset="0.461804" stop-color="#E6B9BF"/>
<stop offset="1" stop-color="#B46E77"/>
</linearGradient>
<linearGradient id="paint13_linear_4502_91" x1="36.8125" y1="20.1634" x2="30.8916" y2="24.3122" gradientUnits="userSpaceOnUse">
<stop stop-color="#FFD1D7"/>
<stop offset="0.461804" stop-color="#E6B9BF"/>
<stop offset="1" stop-color="#B46E77"/>
</linearGradient>
<linearGradient id="paint14_linear_4502_91" x1="32.1053" y1="16.1547" x2="30.0905" y2="17.202" gradientUnits="userSpaceOnUse">
<stop stop-color="#FFD1D7"/>
<stop offset="0.461804" stop-color="#E6B9BF"/>
<stop offset="1" stop-color="#B46E77"/>
</linearGradient>
<linearGradient id="paint15_linear_4502_91" x1="29.5787" y1="14.2201" x2="23.9815" y2="16.1787" gradientUnits="userSpaceOnUse">
<stop stop-color="#FFD1D7"/>
<stop offset="0.461804" stop-color="#E6B9BF"/>
<stop offset="1" stop-color="#B46E77"/>
</linearGradient>
<linearGradient id="paint16_linear_4502_91" x1="51.2925" y1="18.047" x2="45.9723" y2="20.8121" gradientUnits="userSpaceOnUse">
<stop stop-color="#FFD1D7"/>
<stop offset="0.461804" stop-color="#E6B9BF"/>
<stop offset="1" stop-color="#B46E77"/>
</linearGradient>
<linearGradient id="paint17_linear_4502_91" x1="54.507" y1="27.5239" x2="49.0196" y2="30.3698" gradientUnits="userSpaceOnUse">
<stop stop-color="#FFD1D7"/>
<stop offset="0.461804" stop-color="#E6B9BF"/>
<stop offset="1" stop-color="#B46E77"/>
</linearGradient>
<linearGradient id="paint18_linear_4502_91" x1="55.8953" y1="22.0815" x2="51.8308" y2="23.2043" gradientUnits="userSpaceOnUse">
<stop stop-color="#FFD1D7"/>
<stop offset="0.461804" stop-color="#E6B9BF"/>
<stop offset="1" stop-color="#B46E77"/>
</linearGradient>
<linearGradient id="paint19_linear_4502_91" x1="36.8165" y1="11.0062" x2="31.8747" y2="15.341" gradientUnits="userSpaceOnUse">
<stop stop-color="#665F5F"/>
<stop offset="1" stop-color="#D9D9D9" stop-opacity="0"/>
</linearGradient>
<linearGradient id="paint20_linear_4502_91" x1="44.6185" y1="12.0347" x2="34.7426" y2="20.4976" gradientUnits="userSpaceOnUse">
<stop stop-color="#FFD1D7"/>
<stop offset="0.461804" stop-color="#E6B9BF"/>
<stop offset="1" stop-color="#B46E77"/>
</linearGradient>
<linearGradient id="paint21_linear_4502_91" x1="45.9863" y1="23.8145" x2="52.0849" y2="21.1172" gradientUnits="userSpaceOnUse">
<stop stop-color="#C9C9C9"/>
<stop offset="0.761209" stop-color="#E9BCC2"/>
</linearGradient>
<linearGradient id="paint22_linear_4502_91" x1="50.0185" y1="16.2979" x2="53.7543" y2="8.97066" gradientUnits="userSpaceOnUse">
<stop stop-color="#665F5F"/>
<stop offset="1" stop-color="#665F5F" stop-opacity="0"/>
</linearGradient>
<linearGradient id="paint23_linear_4502_91" x1="52.7916" y1="4.56787" x2="53.4933" y2="10.8148" gradientUnits="userSpaceOnUse">
<stop stop-color="#FFD1D7"/>
<stop offset="0.617708" stop-color="#D9ADB2"/>
<stop offset="1" stop-color="#BAB8B8"/>
</linearGradient>
<linearGradient id="paint24_linear_4502_91" x1="63.61" y1="11.2539" x2="60.5132" y2="12.6999" gradientUnits="userSpaceOnUse">
<stop stop-color="#FFD1D7"/>
<stop offset="0.461804" stop-color="#E6B9BF"/>
<stop offset="1" stop-color="#B46E77"/>
</linearGradient>
</defs>
</svg>
