<svg width="40" height="52" viewBox="0 0 40 52" fill="none" xmlns="http://www.w3.org/2000/svg">
<path fill-rule="evenodd" clip-rule="evenodd" d="M21.3024 19.1631C26.8495 18.5249 31.0958 9.97007 36.1274 12.5195C40.8529 14.9138 39.4962 22.6644 39.1154 28.1886C38.7691 33.2125 37.0982 37.8024 34.1141 41.7298C30.6702 46.2623 26.8001 51.7975 21.3024 51.6323C15.8472 51.4683 12.9796 45.1413 9.19931 40.981C5.55031 36.9652 -0.0412413 33.7564 0.000229361 28.1886C0.0416078 22.6333 4.50957 17.6632 9.38839 15.5961C13.3712 13.9086 17.0367 19.6539 21.3024 19.1631Z" fill="#FFD1D7"/>
<path d="M33.285 16.1315C33.5481 15.1487 33.6806 14.1403 33.6797 13.1283C33.7369 11.4236 33.4202 9.72566 32.7481 8.13529C32.0761 6.54492 31.0625 5.09449 29.7675 3.87006C28.4725 2.64564 26.9225 1.67213 25.2094 1.00734C23.4963 0.34255 21.655 0 19.7948 0C17.9346 0 16.0933 0.34255 14.3802 1.00734C12.6671 1.67213 11.117 2.64564 9.82205 3.87006C8.52707 5.09449 7.51354 6.54492 6.84151 8.13529C6.16948 9.72566 5.85266 11.4236 5.9099 13.1283C5.90896 14.1403 6.04145 15.1487 6.30453 16.1315C6.56018 17.8393 7.06919 19.5071 7.81736 21.0886C9.13284 23.7179 14.9209 32.3898 17.565 36.3458C14.0001 36.7559 12.3031 38.167 12.3031 39.4937C12.3031 41.0616 14.6316 42.7622 19.7488 42.7622C24.866 42.7622 27.2075 41.0616 27.2075 39.4937C27.2075 38.167 25.55 36.7559 21.9456 36.3458C24.5766 32.3898 30.3253 23.7179 31.6934 21.0886C32.4687 19.5107 33.0042 17.8428 33.285 16.1315ZM25.1028 39.4937C24.9581 39.8676 23.1559 40.7963 19.8409 40.7963C16.5259 40.7963 14.6447 39.8435 14.5789 39.5058C14.671 39.1801 16.1312 38.372 18.9068 38.2152L18.9726 38.3238C19.0718 38.4632 19.2074 38.5776 19.3671 38.6568C19.5267 38.7361 19.7053 38.7776 19.8869 38.7776C20.0684 38.7776 20.2471 38.7361 20.4068 38.6568C20.5664 38.5776 20.7019 38.4632 20.8011 38.3238V38.2152C23.511 38.372 24.9712 39.2042 25.1028 39.4937ZM31.1935 15.6973C31.1935 15.6973 31.1935 15.6974 31.1935 15.7818C30.9658 17.3149 30.5236 18.8148 29.878 20.2444C28.5625 22.8978 22.2087 32.3657 19.8277 35.9237C17.4598 32.3657 11.1718 22.8978 9.79058 20.2444C9.13879 18.8167 8.69644 17.3161 8.4751 15.7818C8.4751 15.7818 8.4751 15.7818 8.4751 15.7094C8.25056 14.8644 8.13575 13.998 8.13306 13.1283C8.12396 11.5997 8.46986 10.0869 9.14777 8.69027C9.82569 7.29369 10.8201 6.04537 12.0649 5.02839C13.3097 4.0114 14.7763 3.24903 16.3673 2.79191C17.9582 2.33478 19.6371 2.1934 21.2923 2.37716C22.9475 2.56092 24.541 3.06562 25.967 3.8577C27.393 4.64978 28.6188 5.71108 29.5628 6.97108C30.5069 8.23107 31.1476 9.66092 31.4424 11.1655C31.7371 12.6701 31.6792 14.2149 31.2724 15.6973H31.1935Z" fill="#665F5F"/>
<path d="M19.7882 5.96436C18.313 5.96436 16.8709 6.36543 15.6443 7.11686C14.4177 7.8683 13.4618 8.93634 12.8973 10.1859C12.3327 11.4355 12.185 12.8106 12.4728 14.1371C12.7606 15.4637 13.471 16.6822 14.5141 17.6386C15.5572 18.595 16.8862 19.2463 18.3331 19.5102C19.78 19.774 21.2797 19.6386 22.6426 19.121C24.0055 18.6034 25.1704 17.7268 25.99 16.6022C26.8096 15.4776 27.247 14.1555 27.247 12.8029C27.247 10.9892 26.4612 9.24982 25.0624 7.96733C23.6636 6.68485 21.7664 5.96436 19.7882 5.96436ZM19.7882 17.6635C18.7475 17.6635 17.7302 17.3806 16.8649 16.8505C15.9996 16.3204 15.3251 15.5669 14.9269 14.6853C14.5286 13.8038 14.4244 12.8338 14.6275 11.8979C14.8305 10.9621 15.3316 10.1025 16.0675 9.42777C16.8034 8.75307 17.741 8.29357 18.7617 8.10742C19.7824 7.92127 20.8404 8.01678 21.8019 8.38193C22.7634 8.74708 23.5852 9.36547 24.1634 10.1588C24.7416 10.9522 25.0501 11.885 25.0501 12.8391C25.0501 14.1187 24.4958 15.3458 23.509 16.2505C22.5222 17.1553 21.1838 17.6635 19.7882 17.6635Z" fill="#665F5F"/>
</svg>
